<svg xmlns="http://www.w3.org/2000/svg" xmlns:svgjs="http://svgjs.com/svgjs" xmlns:xlink="http://www.w3.org/1999/xlink" width="288" height="288"><svg xmlns="http://www.w3.org/2000/svg" width="288" height="288" viewBox="0 0 512 512"><g class="color000 svgShape" data-name="Phone Book"><path fill="#f44336" d="M470.5,142.73v84.73H404.29V84.12h7.5a58.72,58.72,0,0,1,58.71,58.61Z" class="colorf44336 svgShape"/><path fill="#2e77ce" d="M470.5,326.84v76.44a58.81,58.81,0,0,1-39.63,55.52A58.22,58.22,0,0,1,411.79,462h-7.5V326.84Z" class="color558b2f svgShape"/><rect width="66.21" height="129.38" x="404.29" y="212.46" fill="#ff9800" class="colorff9800 svgShape"/><path d="M430.87,87.28V458.8A58.22,58.22,0,0,1,411.79,462h-7.5V84.12h7.5A58.69,58.69,0,0,1,430.87,87.28Z" class="color000 svgShape" opacity=".2"/><path fill="#00bfa6" d="M419.33,11.27V500.73a10,10,0,0,1-9.94,9.93h-358a10,10,0,0,1-9.94-9.93V11.27a10,10,0,0,1,9.94-9.93h358A10,10,0,0,1,419.33,11.27Z" class="color3b82ea svgShape"/><path fill="#038e75" d="M358,348.65C353.25,360.57,341.54,369,328.14,370c-1.89.15-4,.22-6.14.22-33,0-98.23-17.37-153.45-67.66l-.21-.19c-59.1-58.09-66.84-113.63-66.19-141.57.31-13.43,8-25.59,19.68-31,14.16-6.53,31.09-10.24,58.87,6.71a5.68,5.68,0,0,1,.65.44,58.39,58.39,0,0,1,16.4,22c5.39,12.81,8,33.17-10.21,57.46a15.83,15.83,0,0,0-.39,18.53C210.57,268.71,235,291,254.24,296.08a7,7,0,0,0,6.63-1.78c15.08-15.16,30.82-22.83,46.84-22.83.62,0,1.25,0,1.87,0,22.92.86,37.36,17.4,38,18.11.17.2.33.41.48.62C366.48,317,363.71,334.15,358,348.65Z" class="color2e76cc svgShape"/><path fill="#dff2fd" d="M360,341.65C355.25,353.57,343.54,362,330.14,363c-1.89.15-4,.22-6.14.22-33,0-98.23-17.37-153.45-67.66l-.21-.19c-59.1-58.09-66.84-113.63-66.19-141.57.31-13.43,8-25.59,19.68-31,14.16-6.53,31.09-10.24,58.87,6.71a5.68,5.68,0,0,1,.65.44,58.39,58.39,0,0,1,16.4,22c5.39,12.81,8,33.17-10.21,57.46a15.83,15.83,0,0,0-.39,18.53C212.57,261.71,237,284,256.24,289.08a7,7,0,0,0,6.63-1.78c15.08-15.16,30.82-22.83,46.84-22.83.62,0,1.25,0,1.87,0,22.92.86,37.36,17.4,38,18.11.17.2.33.41.48.62C368.48,310,365.71,327.15,360,341.65Z" class="colordff2fd svgShape"/><path fill="#05695b" d="M62.44,510.66h-11a10,10,0,0,1-9.94-9.93V11.27a10,10,0,0,1,9.94-9.93h11a10,10,0,0,0-9.94,9.93V500.73A10,10,0,0,0,62.44,510.66Z" class="color2e77ce svgShape"/><line x1="131.14" x2="390.23" y1="27.85" y2="27.85" fill="none" stroke="#9fc7f7" stroke-miterlimit="10" stroke-width="4" class="colorStroke9fc7f7 svgStroke"/></g></svg></svg>