<?xml version="1.0" standalone="no"?>
<svg xmlns:xlink="http://www.w3.org/1999/xlink" id="wave" style="transform:rotate(0deg); transition: 0.3s" viewBox="0 0 1440 100" version="1.1" xmlns="http://www.w3.org/2000/svg"><defs><linearGradient id="sw-gradient-0" x1="0" x2="0" y1="1" y2="0"><stop stop-color="rgba(0, 191, 166, 1)" offset="0%"/><stop stop-color="rgba(0, 177.258, 255, 1)" offset="100%"/></linearGradient></defs><path style="transform:translate(0, 0px); opacity:1" fill="url(#sw-gradient-0)" d="M0,70L26.7,63.3C53.3,57,107,43,160,40C213.3,37,267,43,320,43.3C373.3,43,427,37,480,28.3C533.3,20,587,10,640,11.7C693.3,13,747,27,800,38.3C853.3,50,907,60,960,66.7C1013.3,73,1067,77,1120,75C1173.3,73,1227,67,1280,61.7C1333.3,57,1387,53,1440,43.3C1493.3,33,1547,17,1600,16.7C1653.3,17,1707,33,1760,38.3C1813.3,43,1867,37,1920,31.7C1973.3,27,2027,23,2080,31.7C2133.3,40,2187,60,2240,63.3C2293.3,67,2347,53,2400,40C2453.3,27,2507,13,2560,20C2613.3,27,2667,53,2720,61.7C2773.3,70,2827,60,2880,51.7C2933.3,43,2987,37,3040,36.7C3093.3,37,3147,43,3200,53.3C3253.3,63,3307,77,3360,83.3C3413.3,90,3467,90,3520,83.3C3573.3,77,3627,63,3680,60C3733.3,57,3787,63,3813,66.7L3840,70L3840,100L3813.3,100C3786.7,100,3733,100,3680,100C3626.7,100,3573,100,3520,100C3466.7,100,3413,100,3360,100C3306.7,100,3253,100,3200,100C3146.7,100,3093,100,3040,100C2986.7,100,2933,100,2880,100C2826.7,100,2773,100,2720,100C2666.7,100,2613,100,2560,100C2506.7,100,2453,100,2400,100C2346.7,100,2293,100,2240,100C2186.7,100,2133,100,2080,100C2026.7,100,1973,100,1920,100C1866.7,100,1813,100,1760,100C1706.7,100,1653,100,1600,100C1546.7,100,1493,100,1440,100C1386.7,100,1333,100,1280,100C1226.7,100,1173,100,1120,100C1066.7,100,1013,100,960,100C906.7,100,853,100,800,100C746.7,100,693,100,640,100C586.7,100,533,100,480,100C426.7,100,373,100,320,100C266.7,100,213,100,160,100C106.7,100,53,100,27,100L0,100Z"/></svg>